<mxfile host="app.diagrams.net" agent="Mozilla/5.0 (Windows NT 10.0; Win64; x64) AppleWebKit/537.36 (KHTML, like Gecko) Chrome/129.0.0.0 Safari/537.36" version="24.8.1">
  <diagram name="‫עמוד-1‬" id="4UTmtsU5IGrYidXw7zGl">
    <mxGraphModel dx="1300" dy="700" grid="1" gridSize="10" guides="1" tooltips="1" connect="1" arrows="1" fold="1" page="1" pageScale="1" pageWidth="1169" pageHeight="827" math="0" shadow="0">
      <root>
        <mxCell id="0" />
        <mxCell id="1" parent="0" />
        <mxCell id="lPmOptHhdy0TYfp4bBg2-1" value="&lt;font style=&quot;font-size: 14px;&quot;&gt;Battle&lt;/font&gt;&lt;div&gt;&lt;font size=&quot;3&quot; color=&quot;#ff8000&quot;&gt;node2D&lt;/font&gt;&lt;/div&gt;" style="rounded=0;whiteSpace=wrap;html=1;fillColor=#AAB5C4;strokeColor=#6c8ebf;" vertex="1" parent="1">
          <mxGeometry x="540" y="40" width="120" height="60" as="geometry" />
        </mxCell>
        <mxCell id="lPmOptHhdy0TYfp4bBg2-2" value="tiles&lt;div&gt;&lt;font color=&quot;#ff8000&quot;&gt;TileMap&lt;/font&gt;&lt;/div&gt;" style="rounded=0;whiteSpace=wrap;html=1;fillColor=#dae8fc;strokeColor=#6c8ebf;" vertex="1" parent="1">
          <mxGeometry x="380" y="40" width="100" height="50" as="geometry" />
        </mxCell>
        <mxCell id="lPmOptHhdy0TYfp4bBg2-3" value="&lt;font style=&quot;font-size: 12px;&quot;&gt;cell_highlights&lt;/font&gt;&lt;div&gt;&lt;font style=&quot;font-size: 12px;&quot; color=&quot;#ff8000&quot;&gt;node2D&lt;/font&gt;&lt;/div&gt;" style="rounded=0;whiteSpace=wrap;html=1;fillColor=#dae8fc;strokeColor=#6c8ebf;" vertex="1" parent="1">
          <mxGeometry x="450" y="130" width="100" height="50" as="geometry" />
        </mxCell>
        <mxCell id="lPmOptHhdy0TYfp4bBg2-4" value="units&lt;div&gt;&lt;font style=&quot;font-size: 12px;&quot; color=&quot;#ff8000&quot;&gt;UnitsContainer&lt;/font&gt;&lt;/div&gt;" style="rounded=0;whiteSpace=wrap;html=1;fillColor=#dae8fc;strokeColor=#6c8ebf;" vertex="1" parent="1">
          <mxGeometry x="620" y="130" width="100" height="50" as="geometry" />
        </mxCell>
        <mxCell id="lPmOptHhdy0TYfp4bBg2-5" value="&lt;div&gt;&lt;font style=&quot;font-size: 12px;&quot;&gt;Cemera&lt;/font&gt;&lt;/div&gt;&lt;div&gt;&lt;font style=&quot;font-size: 12px;&quot; color=&quot;#ff8000&quot;&gt;Camera2D&lt;/font&gt;&lt;/div&gt;" style="rounded=0;whiteSpace=wrap;html=1;fillColor=#dae8fc;strokeColor=#6c8ebf;" vertex="1" parent="1">
          <mxGeometry x="720" y="40" width="100" height="50" as="geometry" />
        </mxCell>
      </root>
    </mxGraphModel>
  </diagram>
</mxfile>
